<?xml version="1.0" encoding="UTF-8"?>
<svg id="Layer_2" data-name="Layer 2" xmlns="http://www.w3.org/2000/svg" viewBox="0 0 310.82 280.9">
  <defs>
    <style>
      .cls-1 {
        stroke-width: 0px;
      }
    </style>
  </defs>
  <g id="Layer_1-2" data-name="Layer 1">
    <path class="cls-1" d="m96.84,215.6c-7,1.75-31.49,14.58-51.89,26.24-20.41,11.66,7-9.91,12.24-18.66,4.66-8.74,37.32-20.41,48.39-26.24,10.49-5.83,9.33-8.75,9.33-8.75,0,0-2.33-7,5.83-9.91,8.75-2.91,6.41,9.91,6.41,9.91,0,0,4.66-11.66,26.24-23.32,22.16-11.66,18.66-11.66,30.32-17.49,12.24-5.25,9.91-8.16,16.91-15.74,7.58-7,13.41,7.58,13.41,7.58,0,0-2.33-11.66,0-20.41s11.08,4.08,11.08,4.08c0,0,8.16,2.92,16.91,1.75,8.16-1.75-16.91-8.75-16.91-8.75,0,0-14.58-5.83-25.66-10.5-11.08-4.08-43.15-13.41-49.56-18.66-4.66-4.08-5.83-11.66-5.83-11.66,0,0-1.17-7-16.91-8.75-15.74-1.17-4.66,2.91-14.58,0s-11.08-4.08-14.58-4.08,11.08-8.75,11.08-8.75c0,0,1.17-8.75-5.25-7.58-5.83,1.75-13.99,10.5-23.91,8.75-9.91-1.17-22.74-2.91-36.15-11.08-13.41-8.75,8.16-8.75,0-14.58-8.75-5.83-29.15-7.58-36.15-11.66C.05,12.69,9.96,3.95,26.87,2.78c16.91-1.75,19.24-5.83,51.89,1.17,30.32,7,91.54,41.4,117.78,56.56,1.75,1.17,3.5,2.33,5.25,2.92,23.32,13.41,39.07,14.58,42.56,17.49,3.5,2.91,8.16,5.83,13.41,10.49,4.66,4.08,14.58,1.17,20.41,1.17s13.41,8.75,13.41,8.75l4.66,8.75c4.66,8.75,14.58,8.75,14.58,8.75,0,0-3.5,9.91-18.08,11.66-14.58,1.17-139.35,74.05-170.26,94.46l-1.75,1.17s-15.16,1.17-20.41,5.83c-4.66,4.08-14.58,8.75-11.66,1.17,2.33-7,15.16-18.66,8.16-17.49Zm-88.62,52.48l39.65-12.83s-39.65,25.65-46.06,25.65,6.42-12.83,6.42-12.83Z"/>
  </g>
</svg>