<?xml version="1.0" encoding="UTF-8"?>
<svg id="Layer_2" data-name="Layer 2" xmlns="http://www.w3.org/2000/svg" viewBox="0 0 310.82 280.9">
  <defs>
    <style>
      .cls-1 {
        stroke-width: 0px;
      }
    </style>
  </defs>
  <g id="Layer_1-2" data-name="Layer 1">
    <path class="cls-1" d="m222.15,233.09c2.91,7.58-7,2.91-11.66-1.17-5.25-4.66-20.41-5.83-20.41-5.83l-1.75-1.17c-30.9-20.41-155.68-93.29-170.26-94.46-14.58-1.75-18.08-11.66-18.08-11.66,0,0,9.91,0,14.58-8.75l4.66-8.75s7.58-8.75,13.41-8.75,15.74,2.91,20.41-1.17c5.25-4.66,9.91-7.58,13.41-10.49,3.5-2.92,19.24-4.08,42.56-17.49,1.75-.58,3.5-1.75,5.25-2.92,26.24-15.16,87.46-49.56,117.78-56.56,32.65-7,34.98-2.92,51.89-1.17,16.91,1.17,26.82,9.91,19.24,14.58-7,4.08-27.4,5.83-36.15,11.66-8.16,5.83,13.41,5.83,0,14.58-13.41,8.16-26.24,9.91-36.15,11.08-9.91,1.75-18.08-7-23.91-8.75-6.41-1.17-5.25,7.58-5.25,7.58,0,0,14.58,8.75,11.08,8.75s-4.66,1.17-14.58,4.08,1.17-1.17-14.58,0c-15.74,1.75-16.91,8.75-16.91,8.75,0,0-1.17,7.58-5.83,11.66-6.41,5.25-38.48,14.58-49.56,18.66-11.08,4.66-25.66,10.5-25.66,10.5,0,0-25.07,7-16.91,8.75,8.75,1.17,16.91-1.75,16.91-1.75,0,0,8.75-12.83,11.08-4.08,2.33,8.75,0,20.41,0,20.41,0,0,5.83-14.58,13.41-7.58,7,7.58,4.66,10.5,16.91,15.74,11.66,5.83,8.16,5.83,30.32,17.49,21.57,11.66,26.24,23.32,26.24,23.32,0,0-2.33-12.83,6.41-9.91,8.16,2.91,5.83,9.91,5.83,9.91,0,0-1.17,2.91,9.33,8.75,11.08,5.83,43.73,17.49,48.39,26.24,5.25,8.74,32.65,30.32,12.24,18.66-20.41-11.66-44.9-24.49-51.89-26.24-7-1.17,5.83,10.49,8.16,17.49Zm86.88,47.81c-6.42,0-46.06-25.65-46.06-25.65l39.65,12.83s12.83,12.83,6.42,12.83Z"/>
  </g>
</svg>